<?xml version="1.0" encoding="UTF-8"?>
<svg id="Camada_1" data-name="Camada 1" xmlns="http://www.w3.org/2000/svg" viewBox="0 0 566.93 566.93">
  <defs>
    <style>
      .cls-1 {
        fill: #a8afb4;
      }

      .cls-2 {
        fill: #5b6670;
      }

      .cls-3 {
        fill: #b73d25;
      }

      .cls-4 {
        fill: #818a92;
      }
    </style>
  </defs>
  <path class="cls-3" d="M372.12,255.38c7.48,15.33,9.63,33.86,6.07,51.89-.92,4.5-2.24,8.94-3.83,13.32-.41,1.09-.86,2.16-1.29,3.25l-.66,1.63-.77,1.57-3.15,6.32c-.49,1.09-1.18,2.05-1.79,3.06-.63,1-1.26,2.02-1.92,3.01l-1.98,2.99c-.72.95-1.48,1.87-2.23,2.81-1.52,1.84-2.98,3.79-4.62,5.55l-5.11,5.17c-7.12,6.57-15.16,12.47-24.17,16.66-8.98,4.18-18.59,7.34-28.61,8.91-2.5.42-5.03.59-7.57.83-1.27.09-2.54.23-3.81.26l-3.83-.04-3.84-.06c-1.28,0-2.57-.05-3.84-.23l-7.67-.88c-2.55-.37-5.05-1.01-7.59-1.53-1.26-.28-2.54-.54-3.79-.86l-3.7-1.17c-2.45-.83-4.99-1.52-7.38-2.53l-7.15-3.14c-18.65-9.16-35-24.43-44.57-43.35-1.35-2.28-2.36-4.73-3.36-7.17-.98-2.45-2.09-4.85-2.79-7.4l-2.29-7.56-1.47-7.75c-.56-2.57-.68-5.21-.94-7.81-.23-2.61-.5-5.21-.42-7.84.02-2.62,0-5.23.11-7.84l.8-7.79.22-1.94c.1-.64.24-1.28.36-1.92l.78-3.83c.52-2.55,1.02-5.09,1.87-7.56.77-2.48,1.52-4.96,2.36-7.4l3.02-7.13c.94-2.4,2.26-4.62,3.48-6.87l1.87-3.36.94-1.67,1.05-1.61c2.75-4.3,5.87-8.37,9.23-12.2,6.79-7.61,14.77-14.1,23.49-19.06,8.73-4.97,18.21-8.36,27.83-10.08l1.38-.25c11.96-2.14,23.39,5.83,25.53,17.79,1.89,10.56-4.11,20.7-13.76,24.41-10.16,3.91-19.37,9.69-26.91,17.64-7.55,7.97-13.48,18.17-15.88,29.6-2.69,11.39-2.03,24.16,2.43,36.05,2.03,6.07,5.47,11.58,9.46,16.75l3.15,3.8,3.55,3.47c1.13,1.25,2.5,2.21,3.8,3.27l1.97,1.59.99.8,1.08.66,4.32,2.7c1.45.9,3.03,1.52,4.55,2.31l2.31,1.15c.79.32,1.6.59,2.4.9,1.62.56,3.21,1.27,4.87,1.76,6.63,2,13.62,2.95,20.74,3.09,7.12,0,14.28-1.16,21.3-3.15,7.03-2.03,13.65-5.4,19.9-9.45l4.54-3.28c1.49-1.14,2.82-2.46,4.25-3.69.7-.63,1.43-1.24,2.11-1.89l1.91-2.09c1.25-1.42,2.65-2.74,3.8-4.25l3.44-4.59.87-1.15.77-1.22c.51-.81,1.05-1.62,1.54-2.45,1.95-3.32,3.7-6.79,5.19-10.39,5.85-14.42,7.39-30.9,4.09-46.74-.17-.84.36-1.66,1.2-1.84.71-.15,1.41.21,1.71.84l.09.18Z"/>
  <path class="cls-1" d="M247.17,155.4c25.75-7.58,54.03-7.5,80.21.69,26.19,8.06,50.24,23.99,68.02,45.68,17.83,21.63,29.23,48.82,32.16,77.29.69,7.11,1,14.3.66,21.49-.37,7.18-1.11,14.38-2.51,21.48-2.76,14.2-7.58,28.09-14.39,40.99l-1.26,2.43-1.35,2.38c-.91,1.58-1.79,3.19-2.75,4.75-1.98,3.08-3.9,6.21-6.1,9.16-2.08,3.04-4.43,5.87-6.72,8.76-2.43,2.77-4.8,5.62-7.43,8.22-5.11,5.36-10.69,10.29-16.6,14.82-5.88,4.58-12.15,8.66-18.69,12.29-26.13,14.6-56.89,21.54-87.51,19.2-30.58-2.51-60.75-14.13-85-33.79-12.23-9.71-23-21.39-31.63-34.5-8.79-13.01-15.36-27.49-19.68-42.55-3.12-10.86,3.16-22.18,14.02-25.3,10.41-2.99,21.26,2.66,24.88,12.71l.38,1.07c1.97,5.52,4.16,10.94,6.75,16.16,2.59,5.22,5.52,10.25,8.74,15.06,3.2,4.84,6.84,9.36,10.72,13.65,3.82,4.34,7.95,8.41,12.41,12.1,4.43,3.71,9.1,7.17,14.07,10.18,1.22.79,2.46,1.54,3.73,2.24,1.26.71,2.51,1.47,3.78,2.16,2.59,1.29,5.14,2.69,7.82,3.81,2.62,1.25,5.35,2.22,8.05,3.29,2.75.89,5.47,1.92,8.29,2.63,5.57,1.62,11.29,2.73,17.05,3.46,23.07,2.97,47.02-1.09,68.22-11.13,5.3-2.52,10.43-5.41,15.29-8.73,4.91-3.24,9.62-6.82,13.98-10.8,2.26-1.91,4.28-4.07,6.4-6.14,1.98-2.2,4.06-4.32,5.9-6.66,1.95-2.24,3.67-4.67,5.47-7.05.87-1.21,1.67-2.47,2.51-3.7l1.25-1.86,1.16-1.91c12.66-20.28,19.24-44.5,18.41-68.89-.4-12.18-2.56-24.38-6.48-36.06-1.88-5.87-4.4-11.52-7.12-17.08-2.7-5.58-5.96-10.88-9.5-16-14.21-20.45-34.84-36.78-58.57-46.21-23.66-9.62-50.54-12.13-76.28-6.81h-.01c-.83.17-1.64-.36-1.81-1.19-.16-.78.31-1.56,1.07-1.78Z"/>
  <path class="cls-4" d="M184.16,448.61c-8.88-5.17-17.4-11.07-25.31-17.75-7.94-6.66-15.37-14-22.04-22.02-6.72-7.99-12.7-16.63-17.95-25.72-5.23-9.1-9.79-18.65-13.32-28.61-7.15-19.87-11.02-41.06-11.09-62.42-.03-21.35,3.6-42.81,10.88-63.1,3.67-10.12,8.21-19.95,13.51-29.36,1.38-2.32,2.64-4.72,4.12-6.97l4.44-6.79,4.77-6.57c1.57-2.21,3.36-4.25,5.04-6.38,13.75-16.77,30.52-31.21,49.37-42.2,18.82-11,39.52-18.93,61.02-22.92,21.48-3.99,43.7-4.52,65.36-1.04,21.64,3.43,42.84,10.4,62.1,20.98,9.64,5.26,18.87,11.25,27.56,18.01,8.64,6.82,16.72,14.36,24.12,22.53,14.86,16.31,26.75,35.31,35.2,55.72,4.22,10.21,7.62,20.77,10.07,31.56,2.41,10.8,3.93,21.8,4.51,32.86.58,11.06.23,22.19-1.04,33.22-1.3,11.03-3.61,21.94-6.79,32.6-3.19,10.65-7.26,21.05-12.19,31.02-5,9.94-10.78,19.47-17.38,28.44-26.24,36.04-65.5,62.54-108.82,73.36-9.16,2.29-18.45-3.28-20.75-12.44-2.28-9.12,3.24-18.37,12.32-20.72,17.86-4.61,34.92-12.22,50.29-22.36,15.37-10.16,29-22.97,40.02-37.81,5.51-7.42,10.49-15.26,14.8-23.44,4.25-8.22,7.78-16.8,10.6-25.61,2.8-8.82,4.91-17.87,6.16-27.07,1.23-9.19,1.69-18.5,1.37-27.79-.32-9.29-1.42-18.56-3.28-27.69-1.9-9.12-4.6-18.08-8.01-26.76-6.82-17.35-16.56-33.61-28.92-47.65-6.15-7.04-12.9-13.57-20.15-19.52-7.3-5.89-15.11-11.16-23.29-15.79-16.32-9.33-34.33-15.56-52.85-18.82-18.55-3.26-37.68-3.04-56.28.15-18.63,3.13-36.72,9.55-53.26,18.77-33.25,18.21-59.93,48.3-74.84,83.77-3.7,8.88-6.57,18.1-8.73,27.51-2.17,9.41-3.56,19.02-4.13,28.72-1.01,19.39,1.16,39.07,6.55,57.97,5.37,18.92,14.12,36.93,25.52,53.26,11.38,16.38,25.93,30.56,42.25,42.53h.02c.62.47.76,1.34.3,1.97-.43.58-1.22.73-1.83.38Z"/>
  <path class="cls-2" d="M343.09,497.18c-9.98,3.02-20.17,5.38-30.5,7.07-10.35,1.58-20.83,2.4-31.35,2.58-10.52.08-21.06-.67-31.54-2.03-10.47-1.47-20.83-3.78-31.05-6.66-40.72-12.09-78.05-36.47-105.73-69.61-27.82-33.03-45.39-74.79-50.12-118.25-1.1-10.87-1.65-21.84-1.18-32.8.5-10.95,1.57-21.92,3.65-32.74,4.08-21.63,11.29-42.76,21.5-62.39l1.88-3.7,2.08-3.59c1.4-2.39,2.74-4.81,4.2-7.17,3.02-4.64,5.95-9.36,9.29-13.79,3.16-4.57,6.74-8.82,10.21-13.17l5.52-6.25c1.81-2.11,3.77-4.09,5.73-6.07,1.98-1.96,3.84-4.04,5.93-5.89l6.15-5.67c2.09-1.85,4.26-3.59,6.39-5.39,1.08-.88,2.13-1.81,3.23-2.66l3.34-2.52c2.25-1.65,4.41-3.43,6.74-4.97l6.93-4.71c2.34-1.52,4.75-2.94,7.13-4.41,2.36-1.5,4.81-2.84,7.27-4.17,4.86-2.78,9.92-5.16,14.96-7.61,5.14-2.21,10.24-4.55,15.53-6.41,5.22-2.06,10.59-3.66,15.94-5.38,5.43-1.39,10.85-2.9,16.37-3.93,5.48-1.24,11.05-1.98,16.6-2.84,5.58-.62,11.16-1.29,16.78-1.53l4.21-.25c1.4-.07,2.81-.05,4.22-.08,2.81-.02,5.62-.11,8.44-.06l8.44.31c2.81.07,5.61.42,8.42.63l4.21.36c1.4.15,2.79.36,4.19.54,2.79.39,5.59.71,8.37,1.18l8.31,1.54c2.78.47,5.5,1.24,8.25,1.86,2.75.64,5.49,1.29,8.18,2.13,2.7.79,5.42,1.55,8.11,2.39,5.32,1.85,10.7,3.59,15.89,5.8,5.28,2,10.34,4.48,15.46,6.84,2.53,1.25,5,2.6,7.5,3.9l3.74,1.98,3.62,2.18c9.72,5.7,18.93,12.28,27.69,19.39,17.56,14.16,32.93,31.11,45.12,50.04,12.45,18.76,21.61,39.57,27.53,61.08l.12.45c2.28,8.28-2.59,16.84-10.86,19.12-8.06,2.22-16.39-2.36-18.93-10.24-5.9-18.38-14.35-35.9-25.02-51.97-1.38-1.98-2.64-4.04-4.1-5.96l-4.32-5.81c-3.05-3.74-6.03-7.55-9.33-11.07-3.16-3.65-6.65-7-10.06-10.42l-5.34-4.9c-1.76-1.66-3.69-3.12-5.53-4.7-7.47-6.14-15.34-11.84-23.69-16.78l-3.1-1.9-3.18-1.77c-2.12-1.17-4.22-2.4-6.37-3.53-4.36-2.12-8.66-4.4-13.17-6.22-4.42-2.04-9.01-3.62-13.56-5.35-2.3-.78-4.63-1.48-6.94-2.23-2.31-.79-4.66-1.41-7.02-2.01-2.36-.58-4.69-1.33-7.08-1.79l-7.15-1.52c-2.39-.47-4.81-.79-7.21-1.2-1.21-.19-2.41-.41-3.62-.57l-3.64-.4c-38.8-4.52-79.11,2.68-114.33,20.56-2.21,1.1-4.42,2.2-6.55,3.46-2.14,1.23-4.32,2.4-6.44,3.67l-6.27,3.95c-2.12,1.28-4.07,2.8-6.12,4.19l-3.04,2.13c-1.01.72-1.96,1.51-2.94,2.26-1.94,1.53-3.94,3.01-5.85,4.58l-5.64,4.84c-1.92,1.57-3.63,3.38-5.46,5.05-1.81,1.7-3.62,3.4-5.29,5.23l-5.13,5.4c-3.22,3.78-6.58,7.46-9.54,11.46-3.15,3.86-5.91,8.01-8.78,12.08-1.39,2.07-2.66,4.21-4,6.32l-1.99,3.17-1.81,3.28c-9.84,17.38-17.04,36.24-21.44,55.77-2.24,9.76-3.56,19.72-4.38,29.72-.79,10.01-.64,20.07.02,30.1,2.9,40.12,17.84,79.47,42.64,111.53,24.71,32.11,59.2,56.81,97.86,70.01,38.67,13.19,81.34,14.6,121.07,4.04.8-.21,1.62.26,1.84,1.07.21.78-.24,1.59-1.01,1.82h-.03Z"/>
</svg>