<?xml version="1.0" encoding="UTF-8"?>
<svg id="Camada_1" data-name="Camada 1" xmlns="http://www.w3.org/2000/svg" viewBox="0 0 566.93 566.93">
  <defs>
    <style>
      .cls-1 {
        fill: #a8afb4;
      }

      .cls-2, .cls-3 {
        fill: #5b6670;
      }

      .cls-4 {
        letter-spacing: .23em;
      }

      .cls-5 {
        letter-spacing: .23em;
      }

      .cls-6 {
        letter-spacing: .22em;
      }

      .cls-7 {
        letter-spacing: .21em;
      }

      .cls-8 {
        letter-spacing: .22em;
      }

      .cls-3 {
        font-family: SemplicitaPro, 'Semplicita Pro';
        font-size: 45.49px;
      }

      .cls-9 {
        fill: #b73d25;
      }

      .cls-10 {
        fill: #818a92;
      }
    </style>
  </defs>
  <g>
    <path class="cls-2" d="M104.01,390.43c-5.03,4.81-11.59,7.36-19.46,7.36-17.85,0-30.61-13.12-30.61-28.93s12.1-28.71,29.59-28.71c11.29,0,18.29,5.61,20.11,7.8l-4.95,6.48c-3.86-3.79-9.47-5.83-15.16-5.83-12.39,0-19.68,9.55-19.68,20.04,0,11.51,8.67,20.77,21.13,20.77,6.92,0,12.53-2.84,14.72-5.03l4.3,6.05Z"/>
    <path class="cls-2" d="M142.11,392.69c-2.84,2.62-9.25,4.95-16.25,4.95-12.02,0-17.12-6.85-17.12-13.04s5.39-12.02,14.43-12.02c3.72,0,8.23.95,10.71,3.28v-4.3c0-3.5-1.89-5.68-8.09-5.68-4.74,0-8.31,1.31-10.28,2.11l-2.62-6.27c3.21-1.53,7.72-2.99,13.85-2.99,12.17,0,15.38,5.76,15.38,14.65v19.31ZM133.88,382.41c-1.6-1.53-5.17-3.13-8.75-3.13-4.88,0-7.43,2.84-7.43,5.68s2.55,5.83,8.23,5.83c3.06,0,6.19-.87,7.94-1.97v-6.41Z"/>
    <path class="cls-2" d="M198,396.55v-23.32c0-4.74-1.97-6.92-5.76-6.92s-7,2.33-8.53,4.08v26.16h-8.6v-23.68c0-4.66-2.26-6.56-6.19-6.56-3.35,0-6.85,2.62-8.09,4.08v26.16h-8.6v-36.8h8.6v3.86c1.68-1.6,5.98-4.88,11.59-4.88s8.09,3.35,9.18,5.54c2.92-2.26,7.58-5.54,13.19-5.54,7.51,0,11.8,4.01,11.8,13.12v24.7h-8.6Z"/>
    <path class="cls-2" d="M216.21,347.87c0-3.28,2.33-5.54,5.47-5.54,3.35,0,5.54,2.33,5.54,5.54s-2.33,5.54-5.54,5.54-5.47-2.26-5.47-5.54ZM217.38,396.55v-36.8h8.6v36.8h-8.6Z"/>
    <path class="cls-2" d="M237.12,396.55v-59.75h8.6v59.75h-8.6Z"/>
    <path class="cls-2" d="M256.72,396.55v-59.75h8.6v59.75h-8.6Z"/>
    <path class="cls-2" d="M309.99,392.76c-1.97,1.75-7.72,4.88-15.52,4.88-12.17,0-20.33-7.58-20.33-19.24s7.72-19.68,19.24-19.68,17.93,8.89,17.93,19.09v3.57h-28.27c.51,4.74,4.81,9.11,12.9,9.11,5.68,0,9.4-2.33,11.37-3.86l2.7,6.12ZM302.34,374.47c-.22-4.81-3.43-8.96-9.11-8.96-5.03,0-9.47,3.21-10.13,8.96h19.24Z"/>
    <path class="cls-2" d="M369.88,375.49v-7.94h23.9c-.22,21.5-13.41,30.32-27.04,30.32-16.69,0-29.8-12.68-29.8-28.64s12.83-29.08,29.66-29.08c13.34,0,20.77,6.92,21.21,7.36l-4.74,7c-.36-.51-6.19-5.9-16.32-5.9-12.02,0-19.89,9.04-19.89,20.7,0,9.77,7.65,20.11,19.97,20.11,9.4,0,16.54-5.9,17.2-13.92h-14.14Z"/>
    <path class="cls-2" d="M425.77,359.75h8.6v32.79c-4.23,3.64-9.55,5.1-16.32,5.1-9.69,0-16.54-4.74-16.54-14.28v-23.61h8.6v21.5c0,7.29,4.15,9.26,8.82,9.26,3.5,0,5.76-1.17,6.85-1.97v-28.78Z"/>
    <path class="cls-2" d="M478.74,392.76c-1.97,1.75-7.72,4.88-15.52,4.88-12.17,0-20.33-7.58-20.33-19.24s7.72-19.68,19.24-19.68,17.93,8.89,17.93,19.09v3.57h-28.27c.51,4.74,4.81,9.11,12.9,9.11,5.68,0,9.4-2.33,11.37-3.86l2.7,6.12ZM471.09,374.47c-.22-4.81-3.43-8.96-9.11-8.96-5.03,0-9.47,3.21-10.13,8.96h19.24Z"/>
    <path class="cls-2" d="M488.58,386.71c2.19,2.11,6.41,4.45,10.2,4.45,3.35,0,5.47-1.82,5.47-4.23,0-6.78-16.25-7.58-16.25-17.78,0-5.54,4.81-10.57,12.83-10.57,5.97,0,10.42,2.77,12.02,4.15l-3.21,5.98c-.58-.66-3.94-3.57-7.8-3.57-2.77,0-4.81,1.53-4.81,3.72,0,6.12,15.96,6.41,15.96,17.63,0,6.56-5.39,11.15-13.77,11.15-6.27,0-11.08-2.55-13.85-4.81l3.21-6.12Z"/>
  </g>
  <g>
    <path class="cls-9" d="M318.93,186.51c3.08,6.32,3.97,13.96,2.5,21.4-.38,1.86-.93,3.69-1.58,5.49-.17.45-.35.89-.53,1.34l-.27.67-.32.65-1.3,2.61c-.2.45-.49.84-.74,1.26-.26.41-.52.83-.79,1.24l-.81,1.23c-.3.39-.61.77-.92,1.16-.63.76-1.23,1.56-1.9,2.29l-2.11,2.13c-2.94,2.71-6.25,5.14-9.97,6.87-3.7,1.72-7.67,3.03-11.8,3.67-1.03.17-2.07.24-3.12.34-.52.04-1.05.09-1.57.11h-1.58s-1.58-.04-1.58-.04c-.53,0-1.06-.02-1.58-.09l-3.16-.36c-1.05-.15-2.08-.41-3.13-.63-.52-.12-1.05-.22-1.56-.36l-1.53-.48c-1.01-.34-2.06-.63-3.04-1.04l-2.95-1.29c-7.69-3.78-14.43-10.08-18.38-17.88-.56-.94-.97-1.95-1.38-2.96-.41-1.01-.86-2-1.15-3.05l-.94-3.12-.61-3.2c-.23-1.06-.28-2.15-.39-3.22-.1-1.08-.21-2.15-.17-3.23,0-1.08,0-2.16.05-3.23l.33-3.21.09-.8c.04-.27.1-.53.15-.79l.32-1.58c.21-1.05.42-2.1.77-3.12.32-1.02.63-2.04.97-3.05l1.25-2.94c.39-.99.93-1.9,1.43-2.83l.77-1.38.39-.69.43-.66c1.13-1.77,2.42-3.45,3.81-5.03,2.8-3.14,6.09-5.81,9.69-7.86,3.6-2.05,7.51-3.45,11.48-4.16l.57-.1c4.93-.88,9.65,2.4,10.53,7.34.78,4.35-1.69,8.54-5.68,10.07-4.19,1.61-7.99,4-11.1,7.28-3.11,3.29-5.56,7.49-6.55,12.21-1.11,4.7-.84,9.96,1,14.87.84,2.5,2.26,4.78,3.9,6.91l1.3,1.57,1.46,1.43c.47.51,1.03.91,1.57,1.35l.81.65.41.33.44.27,1.78,1.11c.6.37,1.25.63,1.88.95l.95.47c.33.13.66.24.99.37.67.23,1.32.52,2.01.72,2.73.83,5.62,1.22,8.55,1.27,2.94,0,5.89-.48,8.78-1.3,2.9-.84,5.63-2.23,8.21-3.9l1.87-1.35c.61-.47,1.16-1.02,1.75-1.52.29-.26.59-.51.87-.78l.79-.86c.51-.58,1.09-1.13,1.57-1.75l1.42-1.89.36-.48.32-.5c.21-.34.43-.67.64-1.01.8-1.37,1.53-2.8,2.14-4.28,2.41-5.95,3.05-12.74,1.69-19.28-.07-.35.15-.68.5-.76.29-.06.58.09.71.35l.04.07Z"/>
    <path class="cls-1" d="M267.41,145.28c10.62-3.13,22.28-3.09,33.08.28,10.8,3.32,20.72,9.89,28.05,18.84,7.35,8.92,12.05,20.13,13.26,31.87.28,2.93.41,5.9.27,8.86-.15,2.96-.46,5.93-1.04,8.86-1.14,5.86-3.13,11.58-5.93,16.9l-.52,1-.56.98c-.38.65-.74,1.31-1.13,1.96-.82,1.27-1.61,2.56-2.51,3.78-.86,1.25-1.83,2.42-2.77,3.61-1,1.14-1.98,2.32-3.06,3.39-2.11,2.21-4.41,4.24-6.84,6.11-2.42,1.89-5.01,3.57-7.71,5.07-10.78,6.02-23.46,8.88-36.09,7.92-12.61-1.04-25.05-5.83-35.05-13.93-5.04-4-9.49-8.82-13.04-14.23-3.62-5.37-6.33-11.34-8.12-17.55-1.29-4.48,1.3-9.15,5.78-10.43,4.29-1.23,8.77,1.1,10.26,5.24l.16.44c.81,2.28,1.72,4.51,2.78,6.66,1.07,2.15,2.28,4.23,3.61,6.21,1.32,1.99,2.82,3.86,4.42,5.63,1.58,1.79,3.28,3.47,5.12,4.99,1.83,1.53,3.75,2.96,5.8,4.2.5.33,1.01.63,1.54.92.52.29,1.03.6,1.56.89,1.07.53,2.12,1.11,3.22,1.57,1.08.52,2.21.92,3.32,1.36,1.14.37,2.26.79,3.42,1.08,2.3.67,4.65,1.13,7.03,1.43,9.51,1.22,19.39-.45,28.13-4.59,2.18-1.04,4.3-2.23,6.3-3.6,2.02-1.33,3.97-2.81,5.77-4.45.93-.79,1.77-1.68,2.64-2.53.82-.91,1.67-1.78,2.43-2.75.81-.92,1.51-1.93,2.25-2.91.36-.5.69-1.02,1.03-1.53l.52-.77.48-.79c5.22-8.36,7.93-18.35,7.59-28.41-.17-5.02-1.06-10.05-2.67-14.87-.78-2.42-1.81-4.75-2.94-7.04-1.11-2.3-2.46-4.49-3.92-6.6-5.86-8.43-14.37-15.17-24.15-19.05-9.76-3.97-20.84-5-31.46-2.81h0c-.34.07-.68-.15-.75-.49-.07-.32.13-.64.44-.73Z"/>
    <path class="cls-10" d="M241.42,266.19c-3.66-2.13-7.17-4.57-10.44-7.32-3.27-2.74-6.34-5.77-9.09-9.08-2.77-3.29-5.24-6.86-7.4-10.61-2.16-3.75-4.04-7.69-5.49-11.8-2.95-8.19-4.55-16.93-4.57-25.74-.01-8.8,1.49-17.65,4.49-26.02,1.52-4.18,3.38-8.23,5.57-12.11.57-.96,1.09-1.95,1.7-2.88l1.83-2.8,1.97-2.71c.65-.91,1.39-1.75,2.08-2.63,5.67-6.92,12.59-12.87,20.36-17.4,7.76-4.54,16.3-7.81,25.17-9.45,8.86-1.64,18.02-1.86,26.96-.43,8.93,1.41,17.66,4.29,25.61,8.65,3.98,2.17,7.78,4.64,11.36,7.43,3.56,2.81,6.9,5.92,9.95,9.29,6.13,6.72,11.03,14.56,14.51,22.98,1.74,4.21,3.14,8.57,4.15,13.01,1,4.45,1.62,8.99,1.86,13.55.24,4.56.1,9.15-.43,13.7-.53,4.55-1.49,9.05-2.8,13.44-1.32,4.39-2.99,8.68-5.03,12.79-2.06,4.1-4.45,8.03-7.17,11.73-10.82,14.86-27.01,25.79-44.88,30.25-3.78.95-7.61-1.35-8.56-5.13-.94-3.76,1.34-7.57,5.08-8.54,7.37-1.9,14.4-5.04,20.74-9.22,6.34-4.19,11.96-9.47,16.5-15.59,2.27-3.06,4.33-6.29,6.11-9.67,1.75-3.39,3.21-6.93,4.37-10.56,1.15-3.64,2.02-7.37,2.54-11.16.51-3.79.7-7.63.56-11.46-.13-3.83-.58-7.65-1.35-11.42-.78-3.76-1.9-7.45-3.3-11.03-2.81-7.16-6.83-13.86-11.93-19.65-2.54-2.9-5.32-5.59-8.31-8.05-3.01-2.43-6.23-4.6-9.6-6.51-6.73-3.85-14.16-6.42-21.8-7.76-7.65-1.34-15.54-1.25-23.21.06-7.68,1.29-15.14,3.94-21.96,7.74-13.71,7.51-24.71,19.92-30.86,34.54-1.53,3.66-2.71,7.47-3.6,11.34-.9,3.88-1.47,7.85-1.7,11.84-.42,8,.48,16.11,2.7,23.91,2.22,7.8,5.82,15.23,10.52,21.96,4.69,6.76,10.69,12.6,17.42,17.54h0c.26.19.31.55.12.81-.18.24-.5.3-.75.16Z"/>
    <path class="cls-2" d="M306.96,286.22c-4.11,1.24-8.32,2.22-12.58,2.92-4.27.65-8.59.99-12.93,1.06-4.34.03-8.68-.28-13.01-.84-4.32-.61-8.59-1.56-12.81-2.75-16.79-4.99-32.19-15.04-43.6-28.71-11.47-13.62-18.72-30.84-20.67-48.76-.46-4.48-.68-9-.49-13.53.21-4.52.65-9.04,1.5-13.5,1.68-8.92,4.66-17.63,8.87-25.73l.78-1.53.86-1.48c.58-.98,1.13-1.98,1.73-2.96,1.25-1.91,2.45-3.86,3.83-5.69,1.3-1.88,2.78-3.64,4.21-5.43l2.28-2.58c.75-.87,1.55-1.69,2.36-2.5.82-.81,1.58-1.67,2.44-2.43l2.54-2.34c.86-.76,1.76-1.48,2.64-2.22.44-.36.88-.74,1.33-1.1l1.38-1.04c.93-.68,1.82-1.42,2.78-2.05l2.86-1.94c.97-.63,1.96-1.21,2.94-1.82.97-.62,1.98-1.17,3-1.72,2-1.15,4.09-2.13,6.17-3.14,2.12-.91,4.22-1.87,6.4-2.64,2.15-.85,4.37-1.51,6.57-2.22,2.24-.57,4.47-1.19,6.75-1.62,2.26-.51,4.56-.82,6.85-1.17,2.3-.25,4.6-.53,6.92-.63l1.74-.1c.58-.03,1.16-.02,1.74-.03,1.16,0,2.32-.04,3.48-.02l3.48.13c1.16.03,2.31.17,3.47.26l1.74.15c.58.06,1.15.15,1.73.22,1.15.16,2.3.29,3.45.49l3.43.64c1.15.19,2.27.51,3.4.77,1.13.26,2.26.53,3.37.88,1.12.33,2.24.64,3.35.99,2.2.76,4.41,1.48,6.55,2.39,2.18.83,4.26,1.85,6.38,2.82,1.04.52,2.06,1.07,3.09,1.61l1.54.82,1.49.9c4.01,2.35,7.81,5.06,11.42,8,7.24,5.84,13.58,12.83,18.61,20.63,5.13,7.74,8.91,16.32,11.35,25.19l.05.19c.94,3.41-1.07,6.94-4.48,7.88-3.32.91-6.76-.97-7.81-4.22-2.43-7.58-5.92-14.8-10.32-21.43-.57-.82-1.09-1.67-1.69-2.46l-1.78-2.39c-1.26-1.54-2.49-3.11-3.85-4.56-1.3-1.51-2.74-2.89-4.15-4.3l-2.2-2.02c-.72-.69-1.52-1.29-2.28-1.94-3.08-2.53-6.33-4.88-9.77-6.92l-1.28-.79-1.31-.73c-.88-.48-1.74-.99-2.63-1.46-1.8-.88-3.57-1.81-5.43-2.57-1.82-.84-3.72-1.49-5.59-2.21-.95-.32-1.91-.61-2.86-.92-.95-.32-1.92-.58-2.89-.83-.97-.24-1.93-.55-2.92-.74l-2.95-.62c-.99-.19-1.98-.33-2.98-.49-.5-.08-.99-.17-1.49-.23l-1.5-.16c-16-1.87-32.63,1.11-47.15,8.48-.91.45-1.82.91-2.7,1.43-.88.51-1.78.99-2.65,1.51l-2.59,1.63c-.88.53-1.68,1.16-2.52,1.73l-1.25.88c-.41.3-.81.62-1.21.93-.8.63-1.62,1.24-2.41,1.89l-2.33,2c-.79.65-1.5,1.39-2.25,2.08-.75.7-1.49,1.4-2.18,2.16l-2.12,2.23c-1.33,1.56-2.71,3.08-3.93,4.73-1.3,1.59-2.44,3.3-3.62,4.98-.57.85-1.1,1.74-1.65,2.61l-.82,1.31-.75,1.35c-4.06,7.17-7.03,14.95-8.84,23-.92,4.03-1.47,8.13-1.81,12.26-.32,4.13-.26,8.28,0,12.41,1.2,16.55,7.36,32.77,17.58,45.99,10.19,13.24,24.41,23.43,40.36,28.87,15.95,5.44,33.55,6.02,49.93,1.67.33-.09.67.11.76.44.09.32-.1.66-.42.75h-.01Z"/>
  </g>
  <g>
    <path class="cls-2" d="M349.65,443.75c.67.94,3.42,3.24,7.74,3.24,5.54,0,8.15-3.51,8.15-7.16,0-4.32-3.6-8.6-9.9-8.69v-1.62c5.72-.27,8.69-3.65,8.69-6.75,0-2.84-2.07-5.09-5.94-5.09-1.98,0-4.23.72-5.76,1.85l-1.04-2.25c.77-.86,3.87-2.48,7.29-2.48,5.36,0,8.55,3.92,8.55,7.79,0,2.88-1.53,5.81-5.45,7.56v.09c4.54,1.84,6.75,5.8,6.75,9.67,0,4.95-3.96,9.77-11.3,9.77-5.27,0-8.37-2.66-9.18-3.51l1.4-2.43Z"/>
    <path class="cls-2" d="M400.18,416.66c-2.3,2.43-6.89,8.37-9.59,13.32,1.26-1.4,3.96-1.89,5.35-1.89,6.57,0,11.25,5.04,11.25,11.03,0,5.62-4.77,10.62-11.16,10.62s-11.3-5.04-11.3-10.62c0-8.6,10.13-20.93,13.32-24.48l2.11,2.03ZM395.95,430.83c-4.72,0-7.96,3.65-7.96,8.28,0,4.32,3.65,7.79,8.06,7.79,4.72,0,7.88-3.65,7.88-7.79,0-4.41-3.06-8.28-7.97-8.28Z"/>
    <path class="cls-2" d="M440.1,449.73c-10.13,0-18.14-7.88-18.14-17.64s8.01-17.69,18.14-17.69,17.96,7.52,17.96,17.82c0,9.72-8.19,17.51-17.96,17.51ZM440.1,417.38c-8.19,0-14.72,6.21-14.72,14.54,0,7.88,6.39,14.9,14.4,14.9,8.42,0,14.85-6.35,14.85-14.63s-6.57-14.81-14.54-14.81Z"/>
    <path class="cls-2" d="M479.74,428.81c-4.41,0-7.74-3.3-7.74-7.29s3.33-7.32,7.74-7.32,7.71,3.17,7.71,7.37-3.46,7.24-7.71,7.24ZM479.74,416.37c-3.02,0-5.25,2.23-5.25,5.12s2.2,5.17,5.17,5.17,5.3-2.23,5.3-5.12-2.26-5.17-5.22-5.17Z"/>
    <text class="cls-3" transform="translate(79.48 447.22)"><tspan class="cls-4" x="0" y="0">p</tspan><tspan class="cls-7" x="36.71" y="0">r</tspan><tspan class="cls-4" x="61.27" y="0">oje</tspan><tspan class="cls-8" x="154.48" y="0">t</tspan><tspan class="cls-6" x="178.41" y="0">o</tspan><tspan class="cls-5" x="215.75" y="0">s</tspan></text>
  </g>
</svg>